<?xml version="1.0" standalone="no"?><!DOCTYPE svg PUBLIC "-//W3C//DTD SVG 1.1//EN" "http://www.w3.org/Graphics/SVG/1.1/DTD/svg11.dtd"><svg t="1602658529146" class="icon" viewBox="0 0 1024 1024" version="1.1" xmlns="http://www.w3.org/2000/svg" p-id="1766" xmlns:xlink="http://www.w3.org/1999/xlink" width="200" height="200"><defs><style type="text/css"></style></defs><path d="M238.4 508.608a158.336 158.336 0 0 0-78.336-20.608A112.32 112.32 0 0 1 47.872 375.808c0-61.888 50.368-112.256 112.192-112.256 56.256 0 102.784 41.664 110.848 95.744h48.448a160.384 160.384 0 0 0-159.296-143.552A160.32 160.32 0 0 0 0 375.872a160.192 160.192 0 0 0 160.064 160.064c61.888 0 112.192 50.368 112.192 112.32 0 61.76-50.368 112.128-112.192 112.128-51.776 0-95.36-35.264-108.224-83.136H2.688a160.256 160.256 0 0 0 157.376 131.008 160.192 160.192 0 0 0 160.064-160 160 160 0 0 0-81.728-139.648zM942.208 508.608a158.08 158.08 0 0 0-78.336-20.544 112.32 112.32 0 0 1-112.192-112.192c0-61.888 50.304-112.256 112.192-112.256 56.256 0 102.848 41.664 110.848 95.744h48.384a160.256 160.256 0 0 0-159.232-143.616 160.32 160.32 0 0 0-160.064 160.128 160.32 160.32 0 0 0 160.064 160.064c61.888 0 112.256 50.368 112.256 112.32 0 61.76-50.368 112.128-112.256 112.128a112.256 112.256 0 0 1-108.224-83.136h-49.152a160.256 160.256 0 0 0 157.376 131.008 160.192 160.192 0 0 0 160.128-160c0-59.904-33.024-112.256-81.792-139.648zM509.312 806.848c-87.04 0-157.888-67.008-157.888-149.376V365.824c0-82.432 70.848-149.44 157.888-149.44s157.888 67.008 157.888 149.44v291.648c0.064 82.432-70.848 149.376-157.888 149.376z m0-542.592c-60.672 0-110.016 45.568-110.016 101.568v291.648c0 56 49.344 101.504 110.016 101.504s110.016-45.504 110.016-101.504V365.824c0.064-56-49.344-101.568-110.016-101.568z" p-id="1767"></path></svg>